<svg width="24" height="24" viewBox="0 0 24 24" fill="none" xmlns="http://www.w3.org/2000/svg">
<g id="icon-collect">
<path id="Vector" fill-rule="evenodd" clip-rule="evenodd" d="M12 20.25C16.5564 20.25 20.25 16.5564 20.25 12C20.25 7.44365 16.5564 3.75 12 3.75C7.44365 3.75 3.75 7.44365 3.75 12C3.75 16.5564 7.44365 20.25 12 20.25Z" stroke="#262B34" stroke-width="1.5" stroke-linecap="round" stroke-linejoin="round"/>
<path id="Vector_2" d="M3.75 12H20.25" stroke="#262B34" stroke-width="1.5" stroke-linecap="round" stroke-linejoin="round"/>
<path id="Vector_3" fill-rule="evenodd" clip-rule="evenodd" d="M11.9997 20.25C13.8223 20.25 15.2997 16.5564 15.2997 12C15.2997 7.44365 13.8223 3.75 11.9997 3.75C10.1772 3.75 8.69971 7.44365 8.69971 12C8.69971 16.5564 10.1772 20.25 11.9997 20.25Z" stroke="#262B34" stroke-width="1.5" stroke-linecap="round" stroke-linejoin="round"/>
<path id="Vector_4" d="M6.16626 6.28418C7.65922 7.77714 9.72172 8.70056 11.9999 8.70056C14.2781 8.70056 16.3406 7.77714 17.8335 6.28418" stroke="#262B34" stroke-width="1.5" stroke-linecap="round" stroke-linejoin="round"/>
<path id="Vector_5" d="M17.8335 17.7167C16.3406 16.2237 14.2781 15.3003 11.9999 15.3003C9.72172 15.3003 7.65922 16.2237 6.16626 17.7167" stroke="#262B34" stroke-width="1.5" stroke-linecap="round" stroke-linejoin="round"/>
</g>
</svg>
